{
  "accessors": [
    {
      "bufferView": 2,
      "componentType": 5126,
      "count": 65532,
      "max": [
        -623.22900390625,
        31.545204162597656,
        726.33135986328125
      ],
      "min": [
        -1018.8340454101562,
        -226.001953125,
        0.5804131031036377
      ],
      "type": "VEC3"
    },
    {
      "bufferView": 2,
      "byteOffset": 786384,
      "componentType": 5126,
      "count": 65532,
      "max": [
        0.99994736909866333,
        0.99999672174453735,
        1
      ],
      "min": [
        -0.99997091293334961,
        -0.99986016750335693,
        -1
      ],
      "type": "VEC3"
    },
    {
      "bufferView": 1,
      "componentType": 5126,
      "count": 65532,
      "max": [
        0.99500000476837158,
        0.99499660730361938
      ],
      "min": [
        0.004999999888241291,
        0.004999999888241291
      ],
      "type": "VEC2"
    },
    {
      "bufferView": 1,
      "byteOffset": 524256,
      "componentType": 5126,
      "count": 65532,
      "max": [
        0.99932599067687988,
        0.99614399671554565
      ],
      "min": [
        0.0041260002180933952,
        0.004639000166207552
      ],
      "type": "VEC2"
    },
    {
      "bufferView": 0,
      "componentType": 5125,
      "count": 207711,
      "max": [
        65531
      ],
      "min": [
        0
      ],
      "type": "SCALAR"
    },
    {
      "bufferView": 2,
      "byteOffset": 1572768,
      "componentType": 5126,
      "count": 30603,
      "max": [
        -516.08807373046875,
        288.4173583984375,
        858.73590087890625
      ],
      "min": [
        -1076.929443359375,
        -294.52023315429688,
        -0.61770254373550415
      ],
      "type": "VEC3"
    },
    {
      "bufferView": 2,
      "byteOffset": 1940004,
      "componentType": 5126,
      "count": 30603,
      "max": [
        0.99988698959350586,
        0.99995231628417969,
        0.99982815980911255
      ],
      "min": [
        -0.99992650747299194,
        -0.9999663233757019,
        -0.99998927116394043
      ],
      "type": "VEC3"
    },
    {
      "bufferView": 1,
      "byteOffset": 1048512,
      "componentType": 5126,
      "count": 30603,
      "max": [
        0.99496841430664062,
        0.99499917030334473
      ],
      "min": [
        0.004999999888241291,
        0.004999999888241291
      ],
      "type": "VEC2"
    },
    {
      "bufferView": 1,
      "byteOffset": 1293336,
      "componentType": 5126,
      "count": 30603,
      "max": [
        0.99864399433135986,
        0.99751901626586914
      ],
      "min": [
        0.0031739999540150166,
        0.0027689998969435692
      ],
      "type": "VEC2"
    },
    {
      "bufferView": 0,
      "byteOffset": 830844,
      "componentType": 5125,
      "count": 94026,
      "max": [
        30602
      ],
      "min": [
        0
      ],
      "type": "SCALAR"
    },
    {
      "bufferView": 2,
      "byteOffset": 2307240,
      "componentType": 5126,
      "count": 65532,
      "max": [
        -627.90045166015625,
        33.827369689941406,
        821.788330078125
      ],
      "min": [
        -1007.4609985351562,
        -214.09300231933594,
        -3.1396884918212891
      ],
      "type": "VEC3"
    },
    {
      "bufferView": 2,
      "byteOffset": 3093624,
      "componentType": 5126,
      "count": 65532,
      "max": [
        0.99999970197677612,
        0.99979704618453979,
        1
      ],
      "min": [
        -0.99999535083770752,
        -0.99986851215362549,
        -1
      ],
      "type": "VEC3"
    },
    {
      "bufferView": 1,
      "byteOffset": 1538160,
      "componentType": 5126,
      "count": 65532,
      "max": [
        0.99500000476837158,
        0.99498295783996582
      ],
      "min": [
        0.004999999888241291,
        0.004999999888241291
      ],
      "type": "VEC2"
    },
    {
      "bufferView": 1,
      "byteOffset": 2062416,
      "componentType": 5126,
      "count": 65532,
      "max": [
        0.99743199348449707,
        1.0000289678573608
      ],
      "min": [
        0.00022099999478086829,
        0.00050000002374872565
      ],
      "type": "VEC2"
    },
    {
      "bufferView": 0,
      "byteOffset": 1206948,
      "componentType": 5125,
      "count": 198252,
      "max": [
        65531
      ],
      "min": [
        0
      ],
      "type": "SCALAR"
    },
    {
      "bufferView": 2,
      "byteOffset": 3880008,
      "componentType": 5126,
      "count": 16088,
      "max": [
        -655.828369140625,
        31.596519470214844,
        689.33026123046875
      ],
      "min": [
        -968.04583740234375,
        -214.57054138183594,
        66.736991882324219
      ],
      "type": "VEC3"
    },
    {
      "bufferView": 2,
      "byteOffset": 4073064,
      "componentType": 5126,
      "count": 16088,
      "max": [
        0.99997180700302124,
        0.99970066547393799,
        1
      ],
      "min": [
        -0.99997895956039429,
        -0.99936658143997192,
        -1
      ],
      "type": "VEC3"
    },
    {
      "bufferView": 1,
      "byteOffset": 2586672,
      "componentType": 5126,
      "count": 16088,
      "max": [
        0.99498224258422852,
        0.99357748031616211
      ],
      "min": [
        0.004999999888241291,
        0.004999999888241291
      ],
      "type": "VEC2"
    },
    {
      "bufferView": 1,
      "byteOffset": 2715376,
      "componentType": 5126,
      "count": 16088,
      "max": [
        0.99153399467468262,
        0.99465698003768921
      ],
      "min": [
        0.0015569999814033508,
        0.0040099998004734516
      ],
      "type": "VEC2"
    },
    {
      "bufferView": 0,
      "byteOffset": 1999956,
      "componentType": 5125,
      "count": 50202,
      "max": [
        16087
      ],
      "min": [
        0
      ],
      "type": "SCALAR"
    }
  ],
  "asset": {
    "extras": {
      "author": "zzd19941023 (https://sketchfab.com/zzd19941023)",
      "license": "CC-BY-4.0 (http://creativecommons.org/licenses/by/4.0/)",
      "source": "https://sketchfab.com/3d-models/warrior-f20184ab2580491ca9b1577a70947753",
      "title": "warrior"
    },
    "generator": "Sketchfab-9.1.1",
    "version": "2.0"
  },
  "bufferViews": [
    {
      "buffer": 0,
      "byteLength": 2200764,
      "byteOffset": 0,
      "name": "floatBufferViews",
      "target": 34963
    },
    {
      "buffer": 0,
      "byteLength": 2844080,
      "byteOffset": 2200764,
      "byteStride": 8,
      "name": "floatBufferViews",
      "target": 34962
    },
    {
      "buffer": 0,
      "byteLength": 4266120,
      "byteOffset": 5044844,
      "byteStride": 12,
      "name": "floatBufferViews",
      "target": 34962
    }
  ],
  "buffers": [
    {
      "byteLength": 9310964,
      "uri": "scene.bin"
    }
  ],
  "images": [
    {
      "uri": "textures/Object001_mtl_baseColor.jpeg"
    },
    {
      "uri": "textures/Object002_mtl_baseColor.jpeg"
    }
  ],
  "materials": [
    {
      "doubleSided": true,
      "emissiveFactor": [
        0,
        0,
        0
      ],
      "name": "Object001_mtl",
      "pbrMetallicRoughness": {
        "baseColorFactor": [
          1,
          1,
          1,
          1
        ],
        "baseColorTexture": {
          "index": 0,
          "texCoord": 0
        },
        "metallicFactor": 0,
        "roughnessFactor": 0.89297135964975516
      }
    },
    {
      "doubleSided": true,
      "emissiveFactor": [
        0,
        0,
        0
      ],
      "name": "Object002_mtl",
      "pbrMetallicRoughness": {
        "baseColorFactor": [
          1,
          1,
          1,
          1
        ],
        "baseColorTexture": {
          "index": 1,
          "texCoord": 0
        },
        "metallicFactor": 0.20255991418564992,
        "roughnessFactor": 0.13121756749323088
      }
    }
  ],
  "meshes": [
    {
      "name": "Object001_Object001_mtl_0",
      "primitives": [
        {
          "attributes": {
            "NORMAL": 1,
            "POSITION": 0,
            "TEXCOORD_0": 2,
            "TEXCOORD_1": 3
          },
          "indices": 4,
          "material": 0,
          "mode": 4
        }
      ]
    },
    {
      "name": "Object001_Object001_mtl_0",
      "primitives": [
        {
          "attributes": {
            "NORMAL": 6,
            "POSITION": 5,
            "TEXCOORD_0": 7,
            "TEXCOORD_1": 8
          },
          "indices": 9,
          "material": 0,
          "mode": 4
        }
      ]
    },
    {
      "name": "Object002_Object002_mtl_0",
      "primitives": [
        {
          "attributes": {
            "NORMAL": 11,
            "POSITION": 10,
            "TEXCOORD_0": 12,
            "TEXCOORD_1": 13
          },
          "indices": 14,
          "material": 1,
          "mode": 4
        }
      ]
    },
    {
      "name": "Object002_Object002_mtl_0",
      "primitives": [
        {
          "attributes": {
            "NORMAL": 16,
            "POSITION": 15,
            "TEXCOORD_0": 17,
            "TEXCOORD_1": 18
          },
          "indices": 19,
          "material": 1,
          "mode": 4
        }
      ]
    }
  ],
  "nodes": [
    {
      "children": [
        1
      ],
      "name": "RootNode (gltf orientation matrix)",
      "rotation": [
        -0.70710678118654746,
        -0,
        -0,
        0.70710678118654757
      ]
    },
    {
      "children": [
        2
      ],
      "name": "RootNode (model correction matrix)"
    },
    {
      "children": [
        3
      ],
      "matrix": [
        1,
        0,
        0,
        0,
        0,
        0,
        1,
        0,
        0,
        -1,
        0,
        0,
        0,
        0,
        0,
        1
      ],
      "name": "warrior.fbx"
    },
    {
      "children": [
        4,
        8
      ],
      "name": "RootNode"
    },
    {
      "children": [
        5
      ],
      "matrix": [
        1,
        0,
        0,
        0,
        0,
        2.2204460492503131e-16,
        -1,
        0,
        0,
        1,
        2.2204460492503131e-16,
        0,
        -796.5087890625,
        -3.1396884918212891,
        3.0514373779296875,
        1
      ],
      "name": "Object001"
    },
    {
      "children": [
        6,
        7
      ],
      "matrix": [
        1,
        0,
        -0,
        0,
        0,
        1,
        0,
        0,
        0,
        0,
        1,
        0,
        796.5087890625,
        3.0514373779296875,
        3.1396884918212891,
        1
      ],
      "name": ""
    },
    {
      "mesh": 0,
      "name": "Object001_Object001_mtl_0"
    },
    {
      "mesh": 1,
      "name": "Object001_Object001_mtl_0"
    },
    {
      "children": [
        9
      ],
      "matrix": [
        1,
        0,
        0,
        0,
        0,
        2.2204460492503131e-16,
        -1,
        0,
        0,
        1,
        2.2204460492503131e-16,
        0,
        -796.5087890625,
        -3.1396884918212891,
        3.0514373779296875,
        1
      ],
      "name": "Object002"
    },
    {
      "children": [
        10,
        11
      ],
      "matrix": [
        1,
        0,
        -0,
        0,
        0,
        1,
        0,
        0,
        0,
        0,
        1,
        0,
        796.5087890625,
        3.0514373779296875,
        3.1396884918212891,
        1
      ],
      "name": ""
    },
    {
      "mesh": 2,
      "name": "Object002_Object002_mtl_0"
    },
    {
      "mesh": 3,
      "name": "Object002_Object002_mtl_0"
    }
  ],
  "samplers": [
    {
      "magFilter": 9729,
      "minFilter": 9987,
      "wrapS": 10497,
      "wrapT": 10497
    }
  ],
  "scene": 0,
  "scenes": [
    {
      "name": "OSG_Scene",
      "nodes": [
        0
      ]
    }
  ],
  "textures": [
    {
      "sampler": 0,
      "source": 0
    },
    {
      "sampler": 0,
      "source": 1
    }
  ]
}

